<?xml version="1.0" encoding="utf-8"?>
<!-- Generator: Adobe Illustrator 24.3.0, SVG Export Plug-In . SVG Version: 6.00 Build 0)  -->
<svg version="1.1" xmlns="http://www.w3.org/2000/svg" xmlns:xlink="http://www.w3.org/1999/xlink" x="0px" y="0px"
	 viewBox="0 0 150 150" style="enable-background:new 0 0 150 150;" xml:space="preserve">
<style type="text/css">
	.st0{display:none;}
	.st1{display:inline;fill:none;stroke:#000000;stroke-width:4;stroke-linecap:round;stroke-linejoin:round;}
	.st2{display:inline;fill:#94BC19;stroke:#000000;stroke-width:4;stroke-miterlimit:10;}
	.st3{display:inline;fill:#FFFFFF;}
	.st4{display:inline;fill:#1BAF33;stroke:#000000;stroke-width:4;stroke-miterlimit:10;}
	.st5{display:none;fill:#424242;}
	.st6{fill:none;stroke:#FFFFFF;stroke-width:4;stroke-linecap:round;stroke-linejoin:round;}
	.st7{fill:#94BC19;stroke:#FFFFFF;stroke-width:4;stroke-miterlimit:10;}
	.st8{fill:#FFFFFF;}
	.st9{fill:#1BAF33;stroke:#FFFFFF;stroke-width:4;stroke-miterlimit:10;}
</style>
<g id="green" class="st0">
	<path class="st1" d="M76.5,44.7c0,0-6-28.5,5.8-39.7"/>
	<path class="st2" d="M112.7,112.3c0,32.9-35.7,32.7-37.8,32.7s-37.8,0.2-37.8-32.7c0-0.3,0-0.6,0-0.9C37.5,92.6,47.9,83.9,52,74.1
		c4.9-11.8,1.3-36.4,21.1-37.1h1c0.3,0,0.6,0,0.9,0s0.6,0,0.9,0h1C96.6,37.8,93,62.3,97.9,74.1c4.1,9.8,14.5,18.4,14.8,37.3
		C112.7,111.7,112.7,112,112.7,112.3z"/>
	<path class="st3" d="M45.3,102.7c2.6-7.6,8.8-13.4,11.2-11.2s-1.4,5.5-4.1,15.7s-0.4,14.6-3.2,15.4S42.2,111.7,45.3,102.7z"/>
	<path class="st3" d="M45.3,102.7c2.6-7.6,8.8-13.4,11.2-11.2s-1.4,5.5-4.1,15.7s-0.4,14.6-3.2,15.4S42.2,111.7,45.3,102.7z"/>
	<path id="_Path_" class="st4" d="M78.8,26.2c-1.6-12.9,20.5-18,34-9.8C105.1,28.3,85.5,31.9,78.8,26.2z"/>
</g>
<g id="white">
	<rect class="st5" width="150" height="150"/>
	<path class="st6" d="M76.5,44.7c0,0-6-28.5,5.8-39.7"/>
	<path class="st7" d="M112.7,112.3c0,32.9-35.7,32.7-37.8,32.7s-37.8,0.2-37.8-32.7c0-0.3,0-0.6,0-0.9C37.5,92.6,47.9,83.9,52,74.1
		c4.9-11.8,1.3-36.4,21.1-37.1h1c0.3,0,0.6,0,0.9,0s0.6,0,0.9,0h1C96.6,37.8,93,62.3,97.9,74.1c4.1,9.8,14.5,18.4,14.8,37.3
		C112.7,111.7,112.7,112,112.7,112.3z"/>
	<path class="st8" d="M45.3,102.7c2.6-7.6,8.8-13.4,11.2-11.2s-1.4,5.5-4.1,15.7s-0.4,14.6-3.2,15.4S42.2,111.7,45.3,102.7z"/>
	<path class="st8" d="M45.3,102.7c2.6-7.6,8.8-13.4,11.2-11.2s-1.4,5.5-4.1,15.7s-0.4,14.6-3.2,15.4S42.2,111.7,45.3,102.7z"/>
	<path id="_Path__1_" class="st9" d="M78.8,26.2c-1.6-12.9,20.5-18,34-9.8C105.1,28.3,85.5,31.9,78.8,26.2z"/>
</g>
</svg>
